<mxfile host="app.diagrams.net" modified="2023-10-11T13:09:42.906Z" agent="Mozilla/5.0 (Windows NT 10.0; Win64; x64) AppleWebKit/537.36 (KHTML, like Gecko) Chrome/117.0.0.0 Safari/537.36" version="22.0.4" etag="6FoqLDr-KaRgyHRNCHUW" type="github">
  <diagram name="Page-1" id="5U7ivq0d5qHJ4M6kiyU_">
    <mxGraphModel>
      <root>
        <mxCell id="0" />
        <mxCell id="1" parent="0" />
      </root>
    </mxGraphModel>
  </diagram>
</mxfile>
